<?xml version="1.0" encoding="iso-8859-1"?>
<!-- Generator: Adobe Illustrator 19.0.0, SVG Export Plug-In . SVG Version: 6.00 Build 0)  -->
<svg version="1.1" id="Layer_1" xmlns="http://www.w3.org/2000/svg" xmlns:xlink="http://www.w3.org/1999/xlink" x="0px" y="0px"
	 viewBox="0 0 512 512" style="enable-background:new 0 0 512 512;" xml:space="preserve" fill="#0E325D">
<g>
	<g>
		<path d="M461.912,105.739l-234.551,0.004l-19.548-39.099c-8.537-17.079-25.703-27.688-44.799-27.688H50.087
			C22.469,38.957,0,61.426,0,89.044v333.913c0,27.618,22.469,50.087,50.087,50.087h411.826c27.618,0,50.087-22.469,50.087-50.087
			v-267.13C512,128.208,489.531,105.739,461.912,105.739z M478.609,422.957c0,9.206-7.49,16.696-16.696,16.696H50.087
			c-9.206,0-16.696-7.49-16.696-16.696V205.913h445.217V422.957z M478.609,172.522H33.391V89.044c0-9.206,7.49-16.696,16.696-16.696
			h112.927c6.365,0,12.088,3.536,14.934,9.229l24.162,48.328c2.828,5.656,8.609,9.118,14.934,9.118l244.868-0.004
			c9.206,0,16.697,7.601,16.697,16.807V172.522z"/>
	</g>
</g>

</svg>
